# xmcd CD database file
#
# Track frame offsets:
#	150
#	27518
#	51814
#	81870
#	101241
#	129633
#
# Disc length: 2013 seconds
#
# Revision: 0
# Processed by: cddbd v1.5.1PL2 Copyright (c) Steve Scherf et al.
# Submitted via: CDex 1.51
#
DISCID=4e07db06
DTITLE=CODE ZTS LABEL - turn r
DYEAR=2000
DGENRE=Game
TTITLE0=夢の跡
TTITLE1=pure snows
TTITLE2=Last regrets
TTITLE3=笑顔の向こう側に
TTITLE4=縁〜 Hyper House Mix
TTITLE5=凍土高原〜 Tears of grain 〜
EXTD=YEAR: 2000
EXTT0=
EXTT1=
EXTT2=
EXTT3=
EXTT4=
EXTT5=
PLAYORDER=
